<?xml version="1.0" encoding="utf-8"?>
<!-- Generator: Adobe Illustrator 27.5.0, SVG Export Plug-In . SVG Version: 6.00 Build 0)  -->
<svg version="1.1" xmlns="http://www.w3.org/2000/svg" xmlns:xlink="http://www.w3.org/1999/xlink" x="0px" y="0px"
	 viewBox="0 0 500 500" style="enable-background:new 0 0 500 500;" xml:space="preserve">
<g id="Background_Complete">
	<g>
		<rect y="382.398" style="fill:#EBEBEB;" width="500" height="0.25"/>
		<rect x="394.358" y="393.852" style="fill:#EBEBEB;" width="50.901" height="0.25"/>
		<rect x="52.459" y="390.888" style="fill:#EBEBEB;" width="47.208" height="0.25"/>
		<rect x="378.807" y="389.208" style="fill:#EBEBEB;" width="19.192" height="0.25"/>
		<rect x="317.138" y="395.838" style="fill:#EBEBEB;" width="14.082" height="0.25"/>
		<rect x="272.79" y="395.838" style="fill:#EBEBEB;" width="35.444" height="0.25"/>
		<rect x="195.222" y="391.616" style="fill:#EBEBEB;" width="56.986" height="0.25"/>
		<path style="fill:#EBEBEB;" d="M237.014,337.8H43.915c-3.147,0-5.708-2.561-5.708-5.708V60.66c0-3.147,2.561-5.708,5.708-5.708
			h193.099c3.146,0,5.707,2.561,5.707,5.708v271.432C242.721,335.239,240.16,337.8,237.014,337.8z M43.915,55.203
			c-3.01,0-5.458,2.448-5.458,5.458v271.432c0,3.01,2.448,5.458,5.458,5.458h193.099c3.009,0,5.457-2.448,5.457-5.458V60.66
			c0-3.009-2.448-5.458-5.457-5.458H43.915z"/>
		<path style="fill:#EBEBEB;" d="M453.31,337.8H260.212c-3.147,0-5.707-2.561-5.707-5.708V60.66c0-3.147,2.561-5.708,5.707-5.708
			H453.31c3.148,0,5.708,2.561,5.708,5.708v271.432C459.019,335.239,456.458,337.8,453.31,337.8z M260.212,55.203
			c-3.009,0-5.457,2.448-5.457,5.458v271.432c0,3.01,2.448,5.458,5.457,5.458H453.31c3.01,0,5.458-2.448,5.458-5.458V60.66
			c0-3.009-2.448-5.458-5.458-5.458H260.212z"/>
	</g>
	<g>
		<g>
			<g>
				<rect x="58.506" y="88.023" style="fill:#E6E6E6;" width="165.977" height="211.221"/>
				<rect x="56.445" y="88.023" style="fill:#FAFAFA;" width="165.977" height="211.221"/>
				
					<rect x="38.467" y="115.29" transform="matrix(-1.836970e-16 1 -1 -1.836970e-16 333.0671 54.2004)" style="fill:#FFFFFF;" width="201.932" height="156.687"/>
				<circle style="fill:#FAFAFA;" cx="139.433" cy="254.762" r="21.181"/>
				<path style="fill:#EBEBEB;" d="M161.885,193.634c0,3.859-3.403,6.84-5.205,9.955c-1.86,3.214-2.804,7.631-6.018,9.491
					c-3.116,1.803-7.37,0.464-11.228,0.464c-3.859,0-8.113,1.339-11.228-0.464c-3.214-1.86-4.158-6.277-6.018-9.491
					c-1.803-3.116-5.205-6.097-5.205-9.955c0-3.859,3.403-6.84,5.205-9.956c1.86-3.214,2.804-7.631,6.018-9.491
					c3.116-1.803,7.37-0.464,11.228-0.464c3.859,0,8.113-1.339,11.228,0.464c3.214,1.86,4.158,6.277,6.018,9.491
					C158.482,186.794,161.885,189.775,161.885,193.634z"/>
				<polygon style="fill:#E0E0E0;" points="163.822,132.505 156.532,138.062 159.163,146.843 149.996,147.048 146.971,155.705 
					139.433,150.478 131.895,155.705 128.87,147.048 119.703,146.843 122.335,138.061 115.045,132.505 122.335,126.948 
					119.703,118.167 128.871,117.962 131.896,109.305 139.433,114.532 146.971,109.305 149.996,117.962 159.164,118.167 
					156.532,126.949 				"/>
			</g>
		</g>
		<g>
			
				<rect x="416.907" y="298.259" transform="matrix(-1 -1.224647e-16 1.224647e-16 -1 853.5688 676.9597)" style="fill:#F0F0F0;" width="19.754" height="80.442"/>
			
				<rect x="268.55" y="378.701" transform="matrix(-1 -1.224647e-16 1.224647e-16 -1 699.9997 761.0991)" style="fill:#F0F0F0;" width="162.899" height="3.697"/>
			<rect x="263.338" y="298.259" style="fill:#F5F5F5;" width="153.569" height="80.442"/>
			<rect x="274.01" y="327.332" style="fill:#F0F0F0;" width="132.225" height="19.138"/>
			<rect x="274.01" y="352.38" style="fill:#F0F0F0;" width="132.225" height="19.138"/>
			<path style="fill:#F5F5F5;" d="M301.24,328.644h77.766c0.691,0,1.256-0.565,1.256-1.256v-0.113c0-0.691-0.565-1.256-1.256-1.256
				H301.24c-0.691,0-1.256,0.565-1.256,1.256v0.113C299.984,328.079,300.549,328.644,301.24,328.644z"/>
			<path style="fill:#F5F5F5;" d="M301.24,353.692h77.766c0.691,0,1.256-0.565,1.256-1.256v-0.113c0-0.691-0.565-1.256-1.256-1.256
				H301.24c-0.691,0-1.256,0.565-1.256,1.256v0.113C299.984,353.127,300.549,353.692,301.24,353.692z"/>
			<rect x="274.01" y="302.283" style="fill:#F0F0F0;" width="132.225" height="19.138"/>
			<path style="fill:#F5F5F5;" d="M301.24,303.595h77.766c0.691,0,1.256-0.565,1.256-1.256v-0.113c0-0.691-0.565-1.256-1.256-1.256
				H301.24c-0.691,0-1.256,0.565-1.256,1.256v0.113C299.984,303.03,300.549,303.595,301.24,303.595z"/>
		</g>
		<g>
			
				<ellipse transform="matrix(0.7071 -0.7071 0.7071 0.7071 62.7228 308.299)" style="fill:#F5F5F5;" cx="403.511" cy="78.436" rx="17.711" ry="17.711"/>
			
				<ellipse transform="matrix(0.7071 -0.7071 0.7071 0.7071 61.8685 306.2364)" style="fill:#EBEBEB;" cx="400.594" cy="78.436" rx="13.052" ry="13.052"/>
			<path style="fill:#FFFFFF;" d="M400.29,78.436c0,1.307-1.06,2.367-2.367,2.367c-1.307,0-2.367-1.06-2.367-2.367
				c0-1.307,1.06-2.367,2.367-2.367C399.23,76.069,400.29,77.129,400.29,78.436z"/>
			<path style="fill:#EBEBEB;" d="M408.715,100.337c-3.078,0-5.325-0.532-5.521-0.58c-0.716-0.175-1.154-0.897-0.979-1.613
				c0.174-0.716,0.896-1.155,1.613-0.982c0.092,0.022,9.259,2.17,15.501-2.74c3.986-3.135,6.006-8.513,6.006-15.986
				c0-0.738,0.598-1.336,1.336-1.336c0.738,0,1.336,0.598,1.336,1.336c0,8.343-2.369,14.432-7.042,18.098
				C417.043,99.61,412.311,100.337,408.715,100.337z"/>
			<path style="fill:#EBEBEB;" d="M425.53,80.579c-1.366,0-2.477-1.111-2.477-2.477v-4.688c0-1.366,1.111-2.477,2.477-2.477
				c1.365,0,2.477,1.111,2.477,2.477v4.688C428.006,79.468,426.895,80.579,425.53,80.579z"/>
		</g>
	</g>
</g>
<g id="Background_Simple" style="display:none;">
	<g style="display:inline;">
		<path style="fill:#407BFF;" d="M391.214,236.264c-3.596-38.86-87.678-129.09-149.767-150.844
			c-80.526-28.213-164.135,8.572-181.649,93.375c-16.272,78.787,45.549,142.162,126.404,150.136
			C258.203,336.033,397.873,282.906,391.214,236.264z"/>
		<path style="opacity:0.9;fill:#FFFFFF;" d="M391.214,236.264c-3.596-38.86-87.678-129.09-149.767-150.844
			c-80.526-28.213-164.135,8.572-181.649,93.375c-16.272,78.787,45.549,142.162,126.404,150.136
			C258.203,336.033,397.873,282.906,391.214,236.264z"/>
	</g>
</g>
<g id="Shadow_1_">
	<ellipse id="_x3C_Path_x3E__84_" style="fill:#F5F5F5;" cx="250" cy="416.238" rx="193.889" ry="11.323"/>
</g>
<g id="Board">
	<g>
		<rect x="253.611" y="112.424" style="fill:#263238;" width="192.779" height="140.433"/>
		<path style="fill:#FFFFFF;" d="M304.84,177.162c-0.997,0-1.931-0.397-2.835-0.78c-0.636-0.27-1.236-0.524-1.845-0.645
			c-0.637-0.126-1.337-0.121-2.014-0.116c-0.968,0.008-1.97,0.015-2.856-0.353c-0.906-0.376-1.613-1.097-2.297-1.794
			c-0.489-0.498-0.951-0.968-1.476-1.32c-0.533-0.357-1.177-0.618-1.8-0.871c-0.901-0.365-1.832-0.743-2.518-1.429
			c-0.685-0.686-1.063-1.617-1.429-2.517c-0.253-0.623-0.514-1.268-0.871-1.8c-0.352-0.526-0.822-0.987-1.32-1.476
			c-0.697-0.684-1.418-1.391-1.793-2.297c-0.367-0.886-0.36-1.887-0.353-2.855c0.005-0.677,0.01-1.377-0.116-2.014
			c-0.121-0.609-0.375-1.21-0.645-1.845c-0.384-0.904-0.78-1.838-0.78-2.835s0.396-1.931,0.78-2.835
			c0.27-0.636,0.524-1.236,0.645-1.845c0.126-0.638,0.121-1.338,0.116-2.014c-0.007-0.969-0.015-1.97,0.353-2.856
			c0.375-0.906,1.096-1.613,1.794-2.297c0.498-0.489,0.969-0.95,1.32-1.476c0.357-0.533,0.618-1.177,0.871-1.8
			c0.365-0.901,0.743-1.832,1.429-2.517c0.686-0.685,1.617-1.063,2.517-1.429c0.623-0.253,1.268-0.514,1.8-0.871
			c0.525-0.352,0.987-0.822,1.476-1.32c0.684-0.697,1.391-1.418,2.297-1.793c0.886-0.368,1.886-0.36,2.855-0.353
			c0.676,0.005,1.377,0.01,2.014-0.116c0.609-0.12,1.209-0.375,1.845-0.645c0.904-0.384,1.838-0.78,2.835-0.78
			s1.931,0.397,2.835,0.78c0.635,0.27,1.236,0.524,1.845,0.645c0.638,0.126,1.338,0.121,2.014,0.116
			c0.969-0.008,1.97-0.015,2.856,0.353c0.906,0.376,1.613,1.097,2.298,1.794c0.489,0.498,0.95,0.968,1.476,1.32
			c0.532,0.357,1.177,0.618,1.8,0.871c0.901,0.365,1.832,0.743,2.517,1.429c0.686,0.686,1.063,1.617,1.429,2.517
			c0.253,0.623,0.514,1.268,0.871,1.8c0.352,0.526,0.822,0.987,1.32,1.476c0.697,0.684,1.418,1.391,1.794,2.297
			c0.367,0.886,0.36,1.887,0.353,2.855c-0.005,0.677-0.011,1.377,0.116,2.014c0.121,0.609,0.375,1.21,0.645,1.845
			c0.384,0.904,0.78,1.838,0.78,2.835c0,0.997-0.396,1.931-0.78,2.835c-0.27,0.636-0.524,1.236-0.645,1.845
			c-0.126,0.638-0.121,1.338-0.116,2.014c0.007,0.969,0.015,1.97-0.353,2.856c-0.376,0.906-1.097,1.613-1.794,2.298
			c-0.498,0.489-0.968,0.95-1.32,1.476c-0.357,0.533-0.618,1.177-0.871,1.8c-0.365,0.9-0.743,1.832-1.429,2.517
			c-0.686,0.686-1.617,1.063-2.517,1.429c-0.623,0.253-1.268,0.514-1.8,0.871c-0.525,0.352-0.987,0.822-1.476,1.32
			c-0.684,0.697-1.391,1.418-2.297,1.793c-0.886,0.367-1.888,0.359-2.855,0.353c-0.678-0.005-1.377-0.01-2.014,0.116
			c-0.609,0.121-1.21,0.375-1.845,0.645C306.772,176.765,305.837,177.162,304.84,177.162z M298.552,175.115
			c0.572,0,1.151,0.018,1.706,0.127c0.66,0.131,1.313,0.408,1.944,0.675c0.857,0.364,1.744,0.74,2.638,0.74s1.781-0.376,2.638-0.74
			c0.631-0.268,1.284-0.545,1.944-0.675c0.688-0.136,1.415-0.13,2.116-0.125c0.96,0.008,1.867,0.014,2.659-0.314
			c0.811-0.336,1.452-0.99,2.131-1.681c0.485-0.494,0.987-1.005,1.555-1.386c0.576-0.385,1.244-0.657,1.891-0.919
			c0.893-0.363,1.737-0.705,2.351-1.318c0.613-0.613,0.956-1.457,1.318-2.351c0.262-0.647,0.534-1.315,0.919-1.891
			c0.381-0.569,0.892-1.07,1.386-1.555c0.692-0.679,1.345-1.32,1.681-2.131c0.328-0.792,0.322-1.699,0.314-2.659
			c-0.005-0.702-0.011-1.428,0.125-2.116c0.131-0.66,0.408-1.313,0.675-1.944c0.364-0.857,0.74-1.744,0.74-2.638
			c0-0.894-0.376-1.781-0.74-2.638c-0.268-0.631-0.545-1.284-0.675-1.944c-0.136-0.688-0.131-1.414-0.125-2.116
			c0.007-0.96,0.014-1.867-0.314-2.659c-0.336-0.811-0.99-1.452-1.681-2.131c-0.494-0.485-1.005-0.987-1.386-1.555
			c-0.385-0.576-0.656-1.244-0.919-1.891c-0.362-0.893-0.705-1.737-1.318-2.351c-0.613-0.613-1.457-0.956-2.351-1.318
			c-0.647-0.262-1.315-0.534-1.891-0.919c-0.569-0.381-1.07-0.892-1.555-1.386c-0.679-0.692-1.32-1.345-2.131-1.681
			c-0.792-0.328-1.699-0.321-2.659-0.314c-0.702,0.005-1.428,0.011-2.116-0.125c-0.66-0.131-1.313-0.408-1.944-0.675
			c-0.857-0.364-1.744-0.74-2.638-0.74s-1.781,0.376-2.638,0.74c-0.631,0.268-1.284,0.545-1.944,0.675
			c-0.688,0.136-1.413,0.13-2.116,0.125c-0.96-0.008-1.867-0.014-2.659,0.314c-0.811,0.336-1.452,0.99-2.131,1.681
			c-0.485,0.494-0.987,1.005-1.555,1.386c-0.575,0.385-1.244,0.657-1.891,0.919c-0.893,0.363-1.737,0.705-2.35,1.318
			c-0.614,0.613-0.956,1.457-1.318,2.351c-0.262,0.647-0.534,1.315-0.919,1.891c-0.381,0.569-0.892,1.07-1.386,1.555
			c-0.692,0.679-1.345,1.32-1.681,2.131c-0.328,0.792-0.322,1.699-0.314,2.66c0.005,0.702,0.011,1.428-0.125,2.116
			c-0.131,0.66-0.408,1.313-0.675,1.944c-0.364,0.857-0.74,1.744-0.74,2.638c0,0.894,0.376,1.781,0.74,2.638
			c0.268,0.631,0.545,1.284,0.675,1.944c0.136,0.688,0.131,1.414,0.125,2.116c-0.007,0.96-0.014,1.867,0.314,2.659
			c0.336,0.811,0.99,1.452,1.681,2.131c0.494,0.485,1.005,0.987,1.386,1.555c0.385,0.576,0.656,1.244,0.919,1.891
			c0.363,0.893,0.705,1.737,1.318,2.351c0.613,0.613,1.457,0.956,2.351,1.318c0.646,0.262,1.315,0.534,1.891,0.919
			c0.569,0.381,1.07,0.892,1.555,1.386c0.679,0.692,1.32,1.345,2.131,1.681c0.792,0.328,1.698,0.321,2.659,0.314
			C298.278,175.117,298.415,175.115,298.552,175.115z"/>
		<circle style="fill:#FFFFFF;" cx="304.84" cy="152.214" r="14.033"/>
		<path style="fill:#FFFFFF;" d="M314.857,138.433c-0.064,0-0.129-0.025-0.178-0.074c-0.098-0.098-0.098-0.258,0-0.356
			l10.962-10.962c0.047-0.047,0.111-0.074,0.178-0.074h21.7c0.139,0,0.252,0.113,0.252,0.252c0,0.139-0.113,0.252-0.252,0.252
			h-21.596l-10.888,10.888C314.986,138.408,314.921,138.433,314.857,138.433z"/>
		<path style="fill:#FFFFFF;" d="M287.564,191.75h-21.7c-0.139,0-0.252-0.113-0.252-0.252c0-0.139,0.113-0.252,0.252-0.252h21.596
			l10.888-10.888c0.098-0.098,0.258-0.098,0.356,0c0.098,0.098,0.098,0.258,0,0.356l-10.962,10.962
			C287.695,191.723,287.63,191.75,287.564,191.75z"/>
		<g>
			<path style="fill:#FFFFFF;" d="M360.22,127.857c-0.067,0-0.133-0.031-0.175-0.09c-0.069-0.096-0.047-0.231,0.049-0.3
				c0.834-0.6,1.741-1.155,2.697-1.648c0.402-0.207,0.876-0.429,1.412-0.429c0.002,0,0.003,0,0.005,0
				c0.519,0.001,0.955,0.204,1.376,0.399c0.162,0.076,0.325,0.151,0.492,0.214c1.427,0.537,2.995,0.124,4.655-0.313
				c1.479-0.389,3.01-0.792,4.49-0.498c0.366,0.073,0.713,0.187,1.048,0.297c0.204,0.067,0.407,0.134,0.616,0.192
				c2.005,0.556,4.227,0.218,6.375-0.11c0.447-0.068,0.893-0.136,1.334-0.196c2.906-0.393,5.149-0.23,6.855,0.5
				c0.284,0.121,0.559,0.261,0.834,0.4c0.671,0.341,1.305,0.662,2.062,0.724c0.838,0.068,1.617-0.197,2.443-0.477
				c0.267-0.09,0.533-0.181,0.8-0.259c2.417-0.708,5.089-0.457,7.672-0.215l0.469,0.044c7.007,0.649,14.119,0.698,21.141,0.144
				c0.117-0.009,0.222,0.079,0.231,0.198c0.009,0.118-0.079,0.222-0.198,0.231c-7.046,0.555-14.183,0.506-21.214-0.145l-0.469-0.044
				c-2.543-0.239-5.172-0.487-7.511,0.199c-0.262,0.077-0.522,0.165-0.783,0.254c-0.83,0.282-1.687,0.574-2.616,0.498
				c-0.841-0.068-1.543-0.424-2.222-0.769c-0.267-0.135-0.533-0.271-0.808-0.388c-1.633-0.698-3.801-0.852-6.629-0.469
				c-0.439,0.06-0.882,0.127-1.327,0.195c-2.194,0.334-4.461,0.68-6.555,0.099c-0.215-0.06-0.425-0.129-0.635-0.198
				c-0.338-0.111-0.657-0.216-0.998-0.283c-1.384-0.274-2.865,0.115-4.298,0.492c-1.652,0.435-3.361,0.884-4.915,0.299
				c-0.177-0.067-0.35-0.147-0.522-0.227c-0.397-0.185-0.779-0.338-1.2-0.359c-0.44,0-0.841,0.188-1.215,0.381
				c-0.937,0.483-1.826,1.026-2.643,1.615C360.308,127.844,360.264,127.857,360.22,127.857z"/>
			<path style="fill:#FFFFFF;" d="M398.115,133.589c-0.882,0-1.746-0.304-2.589-0.6c-0.858-0.302-1.726-0.618-2.648-0.607
				c-0.633,0.005-1.227,0.164-1.856,0.332c-0.395,0.106-0.803,0.215-1.222,0.282c-1.088,0.175-2.21,0.067-3.295-0.037l-0.131-0.013
				c-4.881-0.468-9.887-0.651-14.727-0.828c-1.671-0.062-3.535,0.207-3.766,1.141c-0.021,0.086-0.093,0.15-0.181,0.161
				c-0.088,0.011-0.174-0.032-0.216-0.109c-0.503-0.909-2.052-1.299-3.326-1.214c-1.401,0.093-2.706,0.635-3.856,1.112
				c-0.11,0.046-0.236-0.006-0.281-0.116c-0.045-0.11,0.007-0.236,0.116-0.281c1.182-0.49,2.521-1.046,3.993-1.144
				c1.221-0.081,2.749,0.239,3.5,1.105c0.699-1.079,3.003-1.123,4.033-1.086c4.847,0.177,9.858,0.361,14.752,0.83l0.131,0.013
				c1.058,0.102,2.152,0.207,3.186,0.04c0.397-0.064,0.795-0.17,1.179-0.273c0.627-0.168,1.276-0.341,1.964-0.346
				c0.983,0.004,1.9,0.317,2.794,0.631c1.105,0.388,2.147,0.755,3.203,0.482c0.345-0.089,0.649-0.241,0.97-0.402
				c0.172-0.086,0.344-0.172,0.522-0.248c1.597-0.685,3.481-0.563,5.304-0.445c1.047,0.068,2.131,0.138,3.153,0.057
				c0.124-0.009,0.222,0.079,0.232,0.197c0.009,0.118-0.079,0.222-0.197,0.231c-1.053,0.084-2.152,0.013-3.215-0.056
				c-1.853-0.12-3.604-0.234-5.107,0.411c-0.171,0.073-0.335,0.156-0.499,0.238c-0.327,0.164-0.666,0.333-1.056,0.434
				C398.69,133.557,398.401,133.589,398.115,133.589z"/>
			<path style="fill:#FFFFFF;" d="M360.22,140.187c-0.085,0-0.165-0.05-0.199-0.133c-0.045-0.11,0.007-0.236,0.117-0.281
				c1.63-0.669,3.353-1.234,5.122-1.679c0.852-0.214,1.845-0.435,2.861-0.351c0.599,0.049,1.168,0.204,1.718,0.353
				c0.563,0.153,1.095,0.297,1.662,0.341c0.648,0.05,1.333-0.034,1.996-0.116c1.004-0.124,2.042-0.251,2.979,0.085
				c0.299,0.107,0.561,0.254,0.814,0.397c0.259,0.146,0.505,0.283,0.783,0.379c1.301,0.446,2.596-0.144,3.967-0.769
				c1.237-0.564,2.515-1.147,3.898-1.006c0.954,0.098,1.759,0.532,2.538,0.952c0.892,0.48,1.732,0.936,2.746,0.88
				c0.457-0.025,0.903-0.16,1.335-0.291l0.126-0.038c3.541-1.065,7.423-1.455,11.226-1.131l0.198,0.017
				c0.523,0.046,1.063,0.094,1.576,0.034c0.324-0.038,0.632-0.117,0.957-0.201c0.23-0.059,0.461-0.118,0.696-0.163
				c1.444-0.272,2.92,0.02,4.348,0.302c0.277,0.055,0.552,0.109,0.826,0.159c3.67,0.671,7.66,0.545,11.236-0.355
				c0.115-0.029,0.232,0.041,0.261,0.156c0.029,0.115-0.041,0.232-0.156,0.261c-3.635,0.914-7.69,1.042-11.418,0.361
				c-0.276-0.051-0.554-0.105-0.833-0.161c-1.387-0.274-2.822-0.558-4.185-0.301c-0.226,0.043-0.448,0.1-0.668,0.157
				c-0.325,0.084-0.662,0.17-1.015,0.212c-0.558,0.066-1.12,0.016-1.665-0.032l-0.197-0.017c-3.749-0.32-7.576,0.065-11.065,1.114
				l-0.126,0.038c-0.456,0.138-0.928,0.281-1.437,0.309c-1.132,0.062-2.069-0.443-2.974-0.931c-0.742-0.4-1.509-0.814-2.378-0.903
				c-1.264-0.13-2.491,0.429-3.676,0.97c-1.387,0.633-2.82,1.287-4.285,0.785c-0.315-0.108-0.589-0.262-0.854-0.411
				c-0.249-0.14-0.484-0.272-0.749-0.367c-0.84-0.302-1.783-0.186-2.78-0.063c-0.684,0.084-1.392,0.172-2.082,0.118
				c-0.607-0.047-1.184-0.203-1.741-0.354c-0.556-0.151-1.081-0.293-1.641-0.339c-0.95-0.079-1.902,0.134-2.721,0.34
				c-1.749,0.439-3.453,0.997-5.063,1.659C360.275,140.182,360.247,140.187,360.22,140.187z"/>
			<g>
				<path style="fill:#FFFFFF;" d="M360.22,145.607c-0.096,0-0.184-0.065-0.208-0.163c-0.029-0.115,0.041-0.232,0.156-0.261
					c1.948-0.489,3.977-0.8,6.03-0.926c0.587-0.036,1.207-0.056,1.774,0.125c0.129,0.041,0.251,0.092,0.374,0.143
					c0.169,0.071,0.328,0.137,0.5,0.173c0.364,0.076,0.77,0.012,1.164-0.051c1.799-0.285,3.598-0.412,5.397-0.384
					c0.119,0.002,0.213,0.1,0.212,0.219c-0.002,0.118-0.08,0.21-0.218,0.212c-1.772-0.029-3.548,0.097-5.279,0.372
					c-0.475,0.075-0.921,0.146-1.363,0.054c-0.211-0.044-0.397-0.122-0.577-0.197c-0.111-0.046-0.222-0.093-0.339-0.13
					c-0.496-0.158-1.07-0.139-1.617-0.106c-2.027,0.124-4.029,0.432-5.952,0.914C360.255,145.605,360.237,145.607,360.22,145.607z"
					/>
				<path style="fill:#FFFFFF;" d="M383.776,144.871c-0.115,0-0.21-0.091-0.215-0.207c-0.004-0.119,0.088-0.218,0.207-0.223
					c1.199-0.043,2.418-0.041,3.595-0.038l0.091,0c8.585,0.018,17.288-0.022,25.87-0.118c0.001,0,0.002,0,0.002,0
					c0.118,0,0.214,0.095,0.215,0.213c0.001,0.119-0.094,0.216-0.213,0.218c-8.585,0.096-17.292,0.135-25.876,0.118l-0.091,0
					c-1.174-0.002-2.388-0.005-3.579,0.038C383.781,144.871,383.778,144.871,383.776,144.871z"/>
			</g>
		</g>
		<g style="opacity:0.1;">
			<path style="fill:#FFFFFF;" d="M412.049,198.634c0,2.399-1.659,4.604-2.107,6.872c-0.462,2.337,0.217,5.007-0.674,7.157
				c-0.907,2.187-3.285,3.59-4.586,5.535c-1.311,1.959-1.706,4.69-3.366,6.351c-1.661,1.661-4.392,2.055-6.351,3.366
				c-1.944,1.301-3.347,3.679-5.534,4.586c-2.15,0.891-4.819,0.212-7.156,0.674c-2.268,0.448-4.473,2.107-6.872,2.107
				s-4.604-1.659-6.872-2.107c-2.337-0.462-5.007,0.217-7.157-0.674c-2.187-0.907-3.59-3.285-5.535-4.586
				c-1.959-1.311-4.69-1.705-6.35-3.366c-1.661-1.661-2.055-4.392-3.366-6.351c-1.301-1.944-3.679-3.347-4.586-5.534
				c-0.892-2.15-0.211-4.819-0.674-7.156c-0.449-2.268-2.107-4.473-2.107-6.872c0-2.399,1.659-4.604,2.107-6.872
				c0.462-2.337-0.218-5.007,0.674-7.157c0.907-2.187,3.285-3.59,4.586-5.535c1.312-1.959,1.706-4.69,3.366-6.35
				c1.661-1.661,4.392-2.055,6.351-3.366c1.944-1.301,3.347-3.679,5.534-4.586c2.15-0.892,4.819-0.212,7.156-0.674
				c2.268-0.449,4.473-2.107,6.872-2.107c2.399,0,4.604,1.659,6.872,2.107c2.337,0.462,5.007-0.218,7.157,0.674
				c2.187,0.907,3.59,3.285,5.535,4.586c1.959,1.312,4.69,1.706,6.351,3.367c1.661,1.661,2.055,4.392,3.366,6.351
				c1.301,1.944,3.679,3.347,4.586,5.534c0.891,2.15,0.212,4.819,0.674,7.156C410.39,194.03,412.049,196.235,412.049,198.634z"/>
		</g>
		<g>
			<path style="fill:#407BFF;" d="M267.178,242.097h18.623c1.062,0,1.93,0.869,1.93,1.93v3.412c0,1.062-0.868,1.93-1.93,1.93
				h-18.623c-1.062,0-1.93-0.868-1.93-1.93v-3.412C265.248,242.965,266.117,242.097,267.178,242.097z"/>
			<path style="fill:#FFFFFF;" d="M266.38,242.097h20.22c0.623,0,1.132-0.509,1.132-1.132v-0.756c0-0.623-0.509-1.132-1.132-1.132
				h-20.22c-0.623,0-1.132,0.509-1.132,1.132v0.756C265.248,241.587,265.758,242.097,266.38,242.097z"/>
		</g>
		<rect x="348.488" y="252.014" style="fill:#263238;" width="3.023" height="158.764"/>
		<path style="fill:#263238;" d="M354.171,366.943h-8.342c-0.939,0-1.701-0.761-1.701-1.701v-2.18c0-0.939,0.761-1.7,1.701-1.7
			h8.342c0.939,0,1.701,0.761,1.701,1.7v2.18C355.872,366.182,355.11,366.943,354.171,366.943z"/>
		<polygon style="fill:#263238;" points="320.118,410.778 317.095,410.778 348.488,364.153 351.511,364.153 		"/>
		<polygon style="fill:#263238;" points="379.882,410.778 382.905,410.778 351.511,364.153 348.488,364.153 		"/>
		<path style="fill:#E0E0E0;" d="M446.971,113.849H253.029c-0.787,0-1.424-0.638-1.424-1.424l0,0c0-0.787,0.638-1.424,1.424-1.424
			h193.942c0.787,0,1.424,0.638,1.424,1.424l0,0C448.395,113.211,447.757,113.849,446.971,113.849z"/>
		<polygon style="fill:#E0E0E0;" points="454.703,249.369 245.297,249.369 250.18,254.659 449.819,254.659 		"/>
	</g>
</g>
<g id="Character_1">
	<g>
		<rect x="103.839" y="295.222" style="fill:#407BFF;" width="95.994" height="2.353"/>
		<rect x="174.38" y="295.222" style="fill:#263238;" width="25.453" height="2.353"/>
		<path style="fill:#263238;" d="M160.641,414.33h-1.456l-6.054-62.047c-0.505-5.149-3.856-9.035-7.791-9.035h-11.943
			c-3.942,0-7.287,3.886-7.791,9.035l-6.054,62.047h-1.456l6.083-62.294c0.591-6.089,4.555-10.688,9.218-10.688h11.943
			c4.663,0,8.627,4.598,9.218,10.688L160.641,414.33z"/>
		<path style="fill:#263238;" d="M115.474,414.33h-1.456l-6.054-62.047c-0.505-5.149-3.856-9.035-7.791-9.035H88.23
			c-3.942,0-7.287,3.886-7.791,9.035l-6.055,62.047h-1.456l6.083-62.294c0.591-6.089,4.555-10.688,9.218-10.688h11.943
			c4.663,0,8.627,4.598,9.218,10.688L115.474,414.33z"/>
		<g>
			<g>
				<path style="fill:#263238;" d="M108.964,214.528c0.218,0.625,0.73,1.028,1.143,0.9s0.571-0.739,0.353-1.364
					c-0.218-0.625-0.73-1.028-1.143-0.9C108.904,213.292,108.746,213.903,108.964,214.528z"/>
				<path style="fill:#ED893E;" d="M109.574,214.962c0,0,2.441,2.56,4.361,3.519c-0.579,1.209-2.33,1.406-2.33,1.406
					L109.574,214.962z"/>
				<path style="fill:#263238;" d="M106.326,212.508c-0.06,0.021-0.126,0.027-0.194,0.016c-0.211-0.037-0.353-0.238-0.316-0.45
					c0.366-2.093,2.032-2.784,2.102-2.812c0.18-0.094,0.425,0.016,0.505,0.215c0.08,0.199-0.016,0.425-0.215,0.505
					c-0.069,0.029-1.34,0.581-1.627,2.225C106.557,212.352,106.455,212.463,106.326,212.508z"/>
				<path style="fill:#FFB573;" d="M89.631,224.274l6.419,6.078l8.511,4.78c-0.302,0.275-0.195,2.178-0.067,3.128
					c0.266,1.978,0.802,3.495,3.504,4.612c1.042,0.431,2.028,0.975,2.193,1.932c0.199,1.161-0.651,2.606-5.413,3.292
					c-5.516,0.794-9.946-0.481-13.428-1.89c-2.012-0.814-1.656-1.716-1.155-3.618C91.473,237.74,91.177,229.179,89.631,224.274z"/>
				<path style="fill:#263238;" d="M87.074,244.815c1.713-4.439,2.427-7.839,2.427-7.839s13.028-0.944,17.329,0.755
					c4.301,1.7,6.969,9.066,6.969,9.066L87.074,244.815z"/>
				<path style="fill:#FFB573;" d="M88.207,220.844c3.069,7.322,4.495,11.77,9.596,14.23c7.673,3.701,15.668-3.113,14.838-11.243
					c-0.747-7.318-5.64-18.063-13.968-18.361C90.468,205.176,85.138,213.522,88.207,220.844z"/>
				<path style="fill:#263238;" d="M103.652,220.457c2.888-3.292,0.882-8.979-1.685-11.229c2.487-0.084,8.904-0.646,6.979-6.181
					c-1.925-5.535-8.503-6.176-10.428-3.449c-5.455-3.048-12.032-0.401-10.428,3.77c-6.417-0.963-8.262,5.374-5.615,7.941
					c-3.369,2.807-4.572,8.342-0.16,10.428c4.412,2.086,4.492,7.3,8.984,10.027C95.791,234.491,106.138,229.845,103.652,220.457z"/>
				<path style="fill:#FFB573;" d="M99.94,221.568c1.034,1.633,2.659,2.69,4.13,3.083c2.213,0.591,3.279-1.857,2.46-3.95
					c-0.737-1.885-2.98-4.023-5.103-3.689C99.336,217.342,98.758,219.701,99.94,221.568z"/>
				<g>
					<g>
						<g>
							<g>
								<g>
									<path style="fill:#FFB573;" d="M93.17,254.601l-6.504,12.994c-1.087,2.166-2.148,4.325-3.177,6.491
										c-1.027,2.148-2.057,4.308-2.948,6.428c-0.481,1.071-0.883,2.092-1.317,3.136l-0.55,1.494l-0.069,0.187l-0.035,0.093
										l-0.018,0.047l-0.008,0.02l0.025-0.096c0.131-0.542,0.143-0.994,0.133-1.286c-0.033-0.614-0.135-0.822-0.18-0.92
										c-0.087-0.141-0.056,0.134,0.053,0.456c0.106,0.328,0.284,0.74,0.495,1.169c0.429,0.863,0.976,1.81,1.542,2.781
										c2.342,3.878,5.214,7.945,7.817,12.072l0.063,0.101c1.147,1.819,0.603,4.224-1.216,5.371
										c-1.318,0.831-2.947,0.772-4.179-0.016c-2.239-1.435-4.291-2.943-6.311-4.598c-2.016-1.647-3.968-3.391-5.859-5.368
										c-0.958-0.985-1.886-2.036-2.808-3.255c-0.463-0.611-0.928-1.262-1.397-2.034c-0.467-0.775-0.953-1.635-1.386-2.969
										c-0.209-0.696-0.431-1.518-0.468-2.752c-0.015-0.602,0.034-1.363,0.236-2.208l0.162-0.64l0.536-2.065
										c0.394-1.295,0.766-2.632,1.203-3.867c0.851-2.526,1.785-4.925,2.725-7.332c0.988-2.368,1.977-4.728,3.029-7.038
										c2.114-4.642,4.311-9.127,6.812-13.63c2.065-3.718,6.754-5.058,10.473-2.993c3.617,2.009,4.983,6.498,3.156,10.164
										L93.17,254.601z"/>
									<g>
										<g>
											<path style="fill:#407BFF;" d="M88.124,241.566c8.372,0.308,12.182,6.578,5.237,17.734
												c-5.97,9.59-6.789,9.788-6.789,9.788L71.4,261.573C76.497,251.861,79.551,241.251,88.124,241.566z"/>
										</g>
										<g style="opacity:0.3;">
											<path d="M88.124,241.566c8.372,0.308,12.182,6.578,5.237,17.734c-5.97,9.59-6.789,9.788-6.789,9.788L71.4,261.573
												C76.497,251.861,79.551,241.251,88.124,241.566z"/>
										</g>
									</g>
									<path style="fill:#FFB573;" d="M92.479,301.396l-0.845-0.942c-2.624-2.436-3.74-2.132-6.747-2.132l-3.665,2.743
										c2.223,6.105,6.706,5.834,6.706,5.834l1.307,1.213c1.237,1.148,3.244,0.65,3.802-0.942l0.38-1.084
										C93.983,304.469,93.624,302.672,92.479,301.396z"/>
								</g>
								<g>
									<polygon style="fill:#FFB573;" points="180.453,392.217 187.619,388.195 179.988,370.72 172.821,374.742 									"/>
									<polygon style="opacity:0.2;" points="176.521,383.213 183.799,379.448 179.988,370.72 172.821,374.742 									"/>
									<path style="fill:#263238;" d="M186.688,384.525l-9.196,0.648c-0.335,0.024-0.57,0.274-0.567,0.602l0.067,7.307
										c0.007,0.758,0.766,1.422,1.535,1.355c3.198-0.281,4.492-1.076,8.505-1.65c2.469-0.354,8.402-0.702,11.723-1.614
										c3.249-0.892,2.789-3.977,0.064-3.86c-3.529,0.152-8.247-0.733-10.686-2.385
										C187.694,384.631,187.178,384.49,186.688,384.525z"/>
									<g>
										<path style="fill:#263238;" d="M123.957,308.487c0,0,41.878-2.498,45.421,13.747
											c7.207,33.046,14.151,51.325,14.151,51.325l-11.077,5.72c0,0-16.283-22.857-21.096-46.279
											c-17.055-2.564-46.874,6.469-54.013-6.336c-6.303-11.306-0.772-19.422-0.772-19.422L123.957,308.487z"/>
									</g>
									<polygon style="fill:#407BFF;" points="172.701,382.262 185.601,376.007 184.148,370.72 169.967,377.379 									"/>
									<path style="fill:#407BFF;" d="M189.69,385.746c-0.756,0.053-1.604-0.044-2.202-0.139
										c-0.075-0.012-0.135-0.066-0.155-0.139c-0.019-0.073,0.006-0.151,0.065-0.198c0.249-0.2,2.454-1.948,3.481-1.625
										c0.238,0.074,0.405,0.25,0.482,0.509c0.128,0.427,0.072,0.781-0.166,1.052C190.894,385.551,190.324,385.702,189.69,385.746
										z M187.993,385.294c1.485,0.188,2.56,0.067,2.915-0.34c0.147-0.169,0.176-0.394,0.087-0.691
										c-0.041-0.137-0.114-0.217-0.23-0.253C190.213,383.837,188.9,384.622,187.993,385.294z"/>
									<path style="fill:#407BFF;" d="M187.532,385.609c-0.03,0.002-0.06-0.003-0.089-0.015c-0.06-0.026-0.103-0.081-0.113-0.146
										c-0.015-0.099-0.365-2.441,0.405-3.295c0.207-0.23,0.473-0.338,0.79-0.323c0.38,0.019,0.64,0.207,0.732,0.529
										c0.252,0.879-0.848,2.674-1.629,3.217C187.598,385.596,187.566,385.607,187.532,385.609z M188.416,382.212
										c-0.158,0.011-0.289,0.076-0.398,0.197c-0.46,0.509-0.432,1.862-0.354,2.638c0.669-0.651,1.39-2.007,1.225-2.584
										c-0.031-0.11-0.104-0.238-0.383-0.252C188.475,382.21,188.445,382.211,188.416,382.212z"/>
								</g>
								<g>
									<polygon style="fill:#FFB573;" points="133.186,407.198 141.326,406.813 142.659,387.594 134.518,387.979 									"/>
									<path style="fill:#263238;" d="M142.155,404.227l-9.214-0.291c-0.335-0.011-0.596,0.214-0.626,0.541l-0.677,7.276
										c-0.07,0.755,0.617,1.493,1.389,1.504c3.21,0.046,4.559-0.358,8.611-0.23c2.493,0.079,7.032,0.487,11.203,0.487
										s2.51-3.402,0.267-3.723c-3.497-0.5-7.298-3.124-9.557-5.016C143.144,404.435,142.645,404.243,142.155,404.227z"/>
									<path style="fill:#407BFF;" d="M145.017,405.748c-0.757-0.024-1.591-0.207-2.176-0.362c-0.073-0.019-0.128-0.08-0.14-0.154
										c-0.012-0.075,0.021-0.149,0.084-0.19c0.268-0.174,2.64-1.687,3.629-1.263c0.229,0.098,0.377,0.29,0.428,0.555
										c0.083,0.437-0.008,0.784-0.272,1.03C146.234,405.676,145.652,405.768,145.017,405.748z M143.375,405.125
										c1.458,0.339,2.54,0.327,2.935-0.041c0.164-0.153,0.215-0.374,0.157-0.679c-0.027-0.14-0.091-0.228-0.203-0.275
										C145.732,403.902,144.345,404.55,143.375,405.125z"/>
									<path style="fill:#407BFF;" d="M142.884,405.392c-0.03-0.001-0.06-0.009-0.087-0.024c-0.057-0.032-0.094-0.091-0.098-0.157
										c-0.005-0.1-0.115-2.465,0.738-3.236c0.23-0.208,0.505-0.288,0.819-0.241c0.376,0.057,0.616,0.271,0.675,0.6
										c0.161,0.901-1.116,2.574-1.949,3.035C142.951,405.385,142.918,405.393,142.884,405.392z M144.11,402.103
										c-0.159-0.005-0.296,0.046-0.416,0.155c-0.509,0.46-0.619,1.809-0.621,2.588c0.732-0.58,1.587-1.855,1.482-2.445
										c-0.02-0.113-0.079-0.247-0.356-0.29C144.168,402.107,144.138,402.104,144.11,402.103z"/>
									<g>
										<polygon style="opacity:0.2;" points="134.516,387.985 142.66,387.599 141.893,398.59 133.777,398.576 										"/>
									</g>
									<path style="fill:#263238;" d="M104.843,307.617c0,0,50.836,9.475,49.851,23.757
										c-1.773,25.708-10.391,62.447-10.391,62.447l-12.214,0.172c0,0-1.666-38.213-0.158-56.816
										c-15.249,0-45.258-0.531-51.133-8.373c-6.489-8.662,0.186-22.273,0.186-22.273L104.843,307.617z"/>
									<polygon style="fill:#407BFF;" points="131.063,396.203 146.471,395.978 147.199,390.971 130.423,391.464 									"/>
								</g>
								<g>
									<path style="fill:#407BFF;" d="M115.762,242.139c-4.991-0.971-27.518-0.693-27.518-0.693
										c-4.654-0.117-8.653,3.324-9.178,7.95c-0.789,6.948,1.548,22.314,1.702,30.234c0.189,9.723,0.402,13.819,0.217,26.902
										l52.427,2.745c1.945-23.835-5.777-35.334-10.398-59.059C122.316,246.635,120.753,243.109,115.762,242.139z"/>
									<path style="opacity:0.3;" d="M115.762,242.139c-4.991-0.971-27.518-0.693-27.518-0.693
										c-4.654-0.117-8.653,3.324-9.178,7.95c-0.789,6.948,1.548,22.314,1.702,30.234c0.189,9.723,0.402,13.819,0.217,26.902
										l52.427,2.745c1.945-23.835-5.777-35.334-10.398-59.059C122.316,246.635,120.753,243.109,115.762,242.139z"/>
								</g>
								<g>
									<path style="fill:#FFB573;" d="M122.136,249.814c2.359,4.197,4.791,8.602,7.244,12.815c1.21,2.13,2.464,4.222,3.725,6.265
										c1.239,2.076,2.557,4.018,3.852,5.896l0.975,1.348c0.325,0.461,0.648,0.817,0.969,1.235l0.241,0.304l0.12,0.152
										l0.028,0.036l-0.04-0.04l-0.083-0.075c-0.057-0.048-0.118-0.093-0.181-0.132c-0.035-0.021-0.017-0.006-0.029-0.009
										c-0.006,0.005-0.048,0.001,0.024,0.055c0.123,0.146,0.561,0.42,0.933,0.685c1.715,1.114,3.934,2.24,6.083,3.379
										c4.357,2.272,8.922,4.522,13.338,7.034l0.059,0.034c1.865,1.061,2.517,3.433,1.456,5.298
										c-0.795,1.397-2.328,2.112-3.829,1.938c-5.239-0.614-10.276-1.66-15.389-3.038c-2.577-0.702-5.071-1.48-7.885-2.658
										c-0.746-0.332-1.434-0.645-2.366-1.208c-0.199-0.11-0.491-0.31-0.753-0.493c-0.139-0.099-0.251-0.173-0.409-0.295
										l-0.534-0.451l-0.26-0.234l-0.18-0.171l-0.199-0.2l-0.397-0.401c-0.516-0.533-1.089-1.081-1.554-1.612l-1.427-1.603
										c-3.603-4.288-6.607-8.633-9.434-13.066c-2.797-4.471-5.377-8.895-7.759-13.67c-1.898-3.807-0.352-8.431,3.455-10.329
										c3.686-1.838,8.139-0.446,10.141,3.1L122.136,249.814z"/>
									<g>
										<g>
											<path style="fill:#407BFF;" d="M108.079,247.084c4.512-7.059,11.848-7.161,17.939,4.483
												c5.236,10.01,4.991,10.817,4.991,10.817l-14.172,9.262C111.053,262.327,103.458,254.312,108.079,247.084z"/>
										</g>
										<g style="opacity:0.3;">
											<path d="M108.079,247.084c4.512-7.059,11.848-7.161,17.939,4.483c5.236,10.01,4.991,10.817,4.991,10.817l-14.172,9.262
												C111.053,262.327,103.458,254.312,108.079,247.084z"/>
										</g>
									</g>
									<path style="fill:#FFB573;" d="M163.164,288.137l-1.245-0.229c-3.566-0.324-4.263,0.598-6.643,2.437l-1.224,4.411
										c5.491,3.473,8.873,0.519,8.873,0.519l1.776,0.161c1.68,0.152,2.965-1.468,2.433-3.069l-0.362-1.09
										C166.232,289.65,164.849,288.447,163.164,288.137z"/>
								</g>
							</g>
						</g>
					</g>
				</g>
			</g>
		</g>
		<path style="fill:#407BFF;" d="M53.179,302.214c-0.935-5.497-0.69-11.026,0.709-15.988l0.962,0.271
			c-1.359,4.821-1.596,10.197-0.686,15.549L53.179,302.214z"/>
		
			<rect x="54.343" y="306.171" transform="matrix(0.9858 -0.1677 0.1677 0.9858 -51.0542 13.5768)" style="fill:#407BFF;" width="1" height="5.681"/>
		<path style="fill:#407BFF;" d="M156.601,336.968l-22.365-0.885l-5.861-34.455C125.357,283.884,110,269.5,94.075,269.5H80
			c-15.925,0-26.388,14.384-23.37,32.128l4.046,23.785c1.497,8.801,9.115,15.936,17.014,15.936h57.443h31.098
			c0.837,0,1.096-1.279,0.335-1.668C163.34,338.03,159.941,337.1,156.601,336.968z"/>
		<path style="fill:#263238;" d="M161.867,340.587h-7.094v-1.824h7.094c17.857,0,32.384-16.233,32.384-36.186v-6.178h1.824v6.178
			C196.075,323.536,180.73,340.587,161.867,340.587z"/>
	</g>
</g>
<g id="Character_2">
	<g>
		<rect x="211.647" y="295.222" style="fill:#407BFF;" width="95.994" height="2.353"/>
		<rect x="243.574" y="294.046" style="fill:#E0E0E0;" width="32.139" height="1.176"/>
		<rect x="282.187" y="295.222" style="fill:#263238;" width="25.453" height="2.353"/>
		<path style="fill:#263238;" d="M268.449,414.33h-1.456l-6.054-62.047c-0.505-5.149-3.856-9.035-7.791-9.035h-11.943
			c-3.942,0-7.287,3.886-7.791,9.035l-6.055,62.047h-1.456l6.083-62.294c0.591-6.089,4.555-10.688,9.218-10.688h11.943
			c4.663,0,8.627,4.598,9.218,10.688L268.449,414.33z"/>
		<path style="fill:#263238;" d="M223.282,414.33h-1.456l-6.054-62.047c-0.505-5.149-3.856-9.035-7.791-9.035h-11.943
			c-3.942,0-7.287,3.886-7.791,9.035l-6.055,62.047h-1.456l6.083-62.294c0.591-6.089,4.555-10.688,9.218-10.688h11.943
			c4.663,0,8.627,4.598,9.218,10.688L223.282,414.33z"/>
		<g>
			<g>
				<g>
					<path style="fill:#FFC3BD;" d="M202.87,270.69l-1.928,14.19c-0.609,4.726-1.245,9.462-1.7,14.114l-0.154,1.731l-0.07,0.861
						c0.006-0.063,0.001-0.292-0.03-0.423c-0.014-0.137-0.057-0.286-0.098-0.402c-0.078-0.232-0.17-0.388-0.245-0.487
						c-0.149-0.192-0.166-0.167-0.126-0.125c0.033,0.047,0.153,0.14,0.288,0.241c0.284,0.205,0.684,0.437,1.121,0.656
						c1.795,0.878,4.015,1.626,6.213,2.306c4.434,1.377,9.101,2.502,13.7,3.647l-0.52,4.042c-4.927-0.163-9.753-0.662-14.674-1.519
						c-2.467-0.469-4.908-0.982-7.541-1.991c-0.665-0.262-1.348-0.56-2.09-0.98c-0.375-0.216-0.756-0.459-1.181-0.801
						c-0.419-0.344-0.874-0.741-1.351-1.439c-0.236-0.354-0.464-0.778-0.64-1.295c-0.085-0.26-0.152-0.559-0.201-0.841
						c-0.039-0.281-0.054-0.66-0.049-0.873l0.021-0.939l0.055-1.87c0.2-4.944,0.645-9.768,1.172-14.592
						c0.516-4.824,1.131-9.604,1.888-14.409L202.87,270.69z"/>
					<path style="fill:#FFC3BD;" d="M230.497,311.265l-3.103,2.835c-0.724,0.662-1.778,0.817-2.662,0.391l-3.43-1.651
						c0,0-5.086-0.21-5.811-3.317l1.315-2.414l7.878-0.875c0.81-0.09,1.626,0.091,2.321,0.516l3.247,1.983
						C231.157,309.285,231.279,310.55,230.497,311.265z"/>
					<path style="fill:#FFC3BD;" d="M211.916,241.535c0.805,4.867,1.488,13.761-1.994,16.89c0,0,8.498,4.449,14.07,12.215
						c5.96-4.721,0.969-11.767,0.969-11.767c-5.358-1.449-5.099-5.448-4.048-9.18L211.916,241.535z"/>
					<path style="fill:#263238;" d="M200.307,259.692c-6.128,1.994-7.444,10.208-6.893,16.603l12.367,7.607
						c0,0,3.003-9.336,2.978-14.322C208.732,264.274,204.467,258.338,200.307,259.692z"/>
					<path style="fill:#263238;" d="M239.264,271.631c-0.518,7.038-2.084,18.89-5.941,38.842l-33.12-0.985
						c0.869-12.225-0.443-21.341-3.439-42.738c-0.547-3.905,2.261-7.476,6.184-7.88c2.127-0.219,4.542-0.4,6.974-0.445
						c5.581-0.103,10.153-0.145,15.039,0.448c1.614,0.196,3.281,0.45,4.872,0.722C235.611,260.58,239.694,265.786,239.264,271.631z"
						/>
					<path style="fill:#263238;" d="M227.223,231.703c0.202,0.626,0.697,1.027,1.107,0.895c0.409-0.132,0.578-0.747,0.376-1.373
						s-0.697-1.027-1.107-0.895C227.189,230.462,227.021,231.077,227.223,231.703z"/>
					<path style="fill:#263238;" d="M227.429,230.423l1.365-0.919C228.794,229.505,228.401,230.929,227.429,230.423z"/>
					<path style="fill:#ED847E;" d="M227.638,232.655c0,0,1.932,2.354,3.521,3.278c-0.578,1.038-2.098,1.139-2.098,1.139
						L227.638,232.655z"/>
					<path style="fill:#263238;" d="M226.205,226.065c0.051-0.122,0.039-0.266-0.045-0.38c-0.127-0.172-0.369-0.208-0.54-0.081
						c-1.719,1.269-1.637,3.052-1.633,3.127c0.012,0.213,0.195,0.376,0.408,0.364c0.212-0.012,0.375-0.194,0.364-0.407l0,0
						c-0.003-0.059-0.053-1.448,1.32-2.462C226.136,226.183,226.179,226.127,226.205,226.065z"/>
					<path style="fill:#FFC3BD;" d="M205.072,235.871c2.952,7.54,4.04,10.794,9.198,13.49c7.758,4.055,16.373-1.22,15.733-9.489
						c-0.576-7.444-5.306-18.523-13.822-19.157C207.792,220.09,202.121,228.331,205.072,235.871z"/>
					<path style="fill:#263238;" d="M223.179,234.131c1.466-0.424,4.002-3.331-0.433-9.195c2.378-0.424,4.304-4.78-2.196-7.269
						c-6.5-2.488-13.586-1.275-17.894,4.687c0,0-13.709,4.05-2.537,18.153C211.29,254.61,225.471,248.874,223.179,234.131z"/>
					<path style="fill:#407BFF;" d="M197.584,222.342c-0.113,0.705,0.411,1.391,1.083,1.961c1.313,1.115,3.219,1.213,4.667,0.279
						c1.118-0.722,2.56-1.842,4.13-3.536c1.526-1.648,1.409-4.272-0.308-5.719c-0.332-0.28-0.573-0.413-0.573-0.413
						S198.732,215.175,197.584,222.342z"/>
					<path style="fill:#263238;" d="M198.694,221.401c4.487-0.717,6.872-4.311,7.137-5.379c-1.038-2.647-14.001-19.423-25.081-7.149
						c-11.703,12.965,11.204,26.071,3.023,41.714C197.954,245.798,209.622,235.941,198.694,221.401z"/>
					<path style="fill:#FFC3BD;" d="M219.941,235.695c0.803,1.612,2.275,2.703,3.686,3.151c2.122,0.673,3.26-1.206,2.735-3.249
						c-0.472-1.839-2.146-4.405-4.307-4.188C219.926,231.622,219.023,233.852,219.941,235.695z"/>
					<polygon style="fill:#FFC3BD;" points="273.526,401.619 281.345,400.879 276.078,381.62 268.259,382.36 					"/>
					<path style="fill:#263238;" d="M291.89,406.151c-4.781-1.411-4.626-3.515-9.397-7.392c-0.518-0.421-1.093-0.738-1.709-0.781
						l-7.788-0.54c-0.288-0.02-0.549,0.209-0.617,0.543l-1.097,5.391c-0.379,1.864,0.772,3.659,2.385,3.721
						c2.596,0.101,5.772,0.194,8.605,0.391c4.129,0.286,4.176,2.376,9.029,2.143C294.236,409.486,293.521,406.633,291.89,406.151z"
						/>
					<polygon style="fill:#FFC3BD;" points="302.629,376.843 307.93,372.241 299.063,358.775 292.432,365.053 					"/>
					<path style="fill:#263238;" d="M306.506,369.386l-6.313,5.853c-0.251,0.233-0.297,0.614-0.11,0.901l3.025,4.637
						c1.046,1.603,3.15,1.68,4.664,0.508c2.072-1.604,3.235-4.41,5.69-6.714c3.564-3.345,4.203-3.255,6.421-7.916
						c1.495-3.142-1.771-3.157-2.919-2.181c-2.891,2.459-1.757,2.554-8.489,3.985C307.744,368.613,307.042,368.888,306.506,369.386z
						"/>
					<g>
						<path style="fill:#407BFF;" d="M221.773,309.896c0,0,53.619-7.932,59.17,5.813c9.658,23.913,23.641,50.856,23.641,50.856
							l-6.3,5.776c0,0-24.007-21.511-32.324-45.536c-9.934,3.214-41.539,13.556-53.114,13.556
							c-12.363,0-17.413-10.541-12.948-28.045c0.398-1.56,1.82-2.641,3.431-2.633C211.111,309.72,221.773,309.896,221.773,309.896z"
							/>
						<path style="opacity:0.5;fill:#FFFFFF;" d="M221.773,309.896c0,0,53.619-7.932,59.17,5.813
							c9.658,23.913,23.641,50.856,23.641,50.856l-6.3,5.776c0,0-24.007-21.511-32.324-45.536
							c-9.934,3.214-41.539,13.556-53.114,13.556c-12.363,0-17.413-10.541-12.948-28.045c0.398-1.56,1.82-2.641,3.431-2.633
							C211.111,309.72,221.773,309.896,221.773,309.896z"/>
					</g>
					<g>
						<path style="fill:#407BFF;" d="M226.913,316.878c0,0,44.006-1.326,44.378,14.266c0.614,25.783,8.522,62.668,8.522,62.668
							l-8.669,0.807c0,0-13.124-29.388-16.595-54.574c-15.676,1.018-30.128,0.315-41.704,0.315
							c-12.973,0-14.045-14.247-1.418-30.871C219.146,309.489,226.913,316.878,226.913,316.878z"/>
						<path style="opacity:0.5;fill:#FFFFFF;" d="M226.913,316.878c0,0,44.006-1.326,44.378,14.266
							c0.614,25.783,8.522,62.668,8.522,62.668l-8.669,0.807c0,0-13.124-29.388-16.595-54.574
							c-15.676,1.018-30.128,0.315-41.704,0.315c-12.973,0-14.045-14.247-1.418-30.871
							C219.146,309.489,226.913,316.878,226.913,316.878z"/>
					</g>
					<path style="fill:#FFFFFF;" d="M199.765,307.53l-0.935,2.939c-0.123,0.227,0.143,0.469,0.526,0.48l34.087,1.014
						c0.299,0.009,0.55-0.13,0.575-0.317l0.387-2.956c0.027-0.205-0.227-0.386-0.554-0.396l-33.538-0.997
						C200.066,307.29,199.844,307.384,199.765,307.53z"/>
					<g>
						<path style="fill:#263238;" d="M204.158,311.414l-0.898-0.027c-0.179-0.005-0.313-0.102-0.297-0.214l0.536-3.839
							c0.016-0.112,0.175-0.2,0.354-0.195l0.898,0.027c0.179,0.005,0.312,0.102,0.297,0.214l-0.536,3.839
							C204.496,311.332,204.337,311.419,204.158,311.414z"/>
						<path style="fill:#263238;" d="M230.909,312.209l-0.898-0.027c-0.179-0.005-0.312-0.102-0.297-0.214l0.536-3.839
							c0.016-0.112,0.175-0.2,0.354-0.195l0.898,0.027c0.179,0.005,0.312,0.102,0.297,0.214l-0.536,3.839
							C231.247,312.127,231.088,312.215,230.909,312.209z"/>
						<path style="fill:#263238;" d="M217.533,311.812l-0.898-0.027c-0.179-0.005-0.312-0.102-0.297-0.214l0.536-3.839
							c0.016-0.112,0.175-0.2,0.354-0.195l0.898,0.027c0.179,0.005,0.313,0.102,0.297,0.214l-0.536,3.839
							C217.872,311.729,217.712,311.817,217.533,311.812z"/>
					</g>
					<path style="fill:#FFC3BD;" d="M240.523,275.427c0.128,0.717,0.314,1.63,0.488,2.458c0.179,0.846,0.38,1.694,0.599,2.534
						c0.43,1.683,0.913,3.347,1.452,4.975c0.56,1.615,1.169,3.2,1.865,4.708c0.728,1.475,1.484,2.935,2.394,4.188l0.164,0.246
						c0.037,0.051-0.033-0.04-0.068-0.076c-0.042-0.046-0.086-0.09-0.133-0.131c-0.098-0.081-0.175-0.157-0.276-0.221
						c-0.378-0.256-0.676-0.32-0.824-0.338c-0.277-0.018-0.124,0.037,0.097,0.014c0.47-0.025,1.232-0.215,1.974-0.46
						c1.516-0.513,3.156-1.196,4.762-1.955c3.23-1.507,6.52-3.212,9.751-4.902l2.356,3.325c-2.865,2.553-5.829,4.875-9.074,7.007
						c-1.639,1.045-3.302,2.079-5.232,2.953c-0.982,0.435-1.986,0.86-3.348,1.151c-0.691,0.131-1.479,0.262-2.673,0.077
						c-0.602-0.109-1.346-0.332-2.103-0.858c-0.189-0.139-0.371-0.271-0.543-0.442l-0.253-0.256l-0.183-0.207l-0.253-0.313
						c-2.786-3.32-4.627-7.015-6.072-10.742c-0.713-1.869-1.307-3.763-1.809-5.675c-0.248-0.958-0.473-1.918-0.676-2.889
						c-0.215-0.988-0.375-1.901-0.528-3.02L240.523,275.427z"/>
					<path style="fill:#263238;" d="M236.543,263.387c5.794,4.471,5.797,17.609,5.797,17.609l-9.986,2.776
						c0,0-7.191-8.712-5.371-12.84C228.879,266.633,233.408,260.969,236.543,263.387z"/>
					<path style="fill:#263238;" d="M271.339,286.259c-0.174,0-0.341-0.094-0.427-0.259l-7.92-15.151
						c-0.123-0.236-0.032-0.526,0.204-0.649c0.236-0.123,0.527-0.032,0.649,0.204l7.92,15.151c0.123,0.236,0.032,0.526-0.204,0.649
						C271.491,286.241,271.414,286.259,271.339,286.259z"/>
					<path style="fill:#FFC3BD;" d="M267.982,277.641l-3.027,1.837c-0.755,0.458-1.337,1.155-1.654,1.979l-2.803,7.3l-1.29,4.641
						c3.001,1.082,8.446-6.002,8.446-6.002l3.417-2.569c0.558-0.42,0.805-1.137,0.623-1.811l-1.174-4.359
						C270.222,277.559,268.955,277.05,267.982,277.641z"/>
				</g>
			</g>
		</g>
		<path style="fill:#407BFF;" d="M264.409,336.968l-22.365-0.885l-5.861-34.455c-3.018-17.744-18.375-32.128-34.301-32.128h-14.075
			c-15.925,0-26.388,14.384-23.37,32.128l4.046,23.785c1.497,8.801,9.115,15.936,17.014,15.936h57.443h31.098
			c0.837,0,1.096-1.279,0.336-1.668C271.148,338.03,267.749,337.1,264.409,336.968z"/>
		<path style="fill:#263238;" d="M269.675,340.587h-7.094v-1.824h7.094c17.857,0,32.385-16.233,32.385-36.186v-6.178h1.824v6.178
			C303.883,323.536,288.538,340.587,269.675,340.587z"/>
	</g>
</g>
<g id="Character_3">
	<g>
		<g>
			<polygon style="fill:#B55B52;" points="380.317,393.956 393.13,391.236 395.541,406.539 384.837,408.828 			"/>
			<polygon style="opacity:0.2;" points="380.321,393.961 393.139,391.239 394.486,399.809 382.85,402.29 			"/>
		</g>
		<path style="fill:#263238;" d="M387.969,335.652c4.262-19.844,13.069-40.555,4.745-59.454l-36.561-0.116
			c0,0,2.79,43.445,4.072,61.754c1.33,19.037,20.615,62.174,20.615,62.174l14.649-3.218
			C395.488,396.793,391.351,356.901,387.969,335.652z"/>
		<path style="opacity:0.2;" d="M388.384,333.764c2.617-11.483,6.513-23.231,7.537-34.714
			C382.065,283.934,383.814,314.764,388.384,333.764z"/>
		<path style="fill:#263238;" d="M398.464,410.793l-3.376,0.75l-0.979-0.967l-1.232,1.47l-6.207,2.694
			c-2.275,0.987-4.728,1.497-7.208,1.497h-5.099c-0.299-1.709,0.823-3.94,0.823-3.94s4.92-0.859,7.456-4.951
			c0.28-0.452,0.873-0.626,1.447-0.641c2.348-0.059,8.527-0.408,11.607-2.43c0.293-0.193,0.728-0.009,0.802,0.345
			C397.112,407.542,398.464,410.793,398.464,410.793z"/>
		<g>
			<polygon style="fill:#B55B52;" points="409.999,395.853 423.11,395.978 423.684,411.439 412.731,411.352 			"/>
			<polygon style="opacity:0.2;" points="410.003,395.858 423.118,395.983 423.437,404.641 411.53,404.538 			"/>
		</g>
		<path style="fill:#263238;" d="M424.261,335.652c1.056-19.844,2.496-49.529-4.156-58.654l-40.829-0.916
			c0,0,11.353,43.445,15.593,61.754c4.405,19.037,15.203,64.04,15.203,64.04l14.173,0.037
			C424.245,401.914,429.589,358.298,424.261,335.652z"/>
		<g>
			<path style="fill:#B65B52;" d="M372.511,217.187l-0.609,0.543l-0.465,0.391l-0.884,0.706c-0.581,0.446-1.165,0.858-1.748,1.255
				c-1.162,0.804-2.366,1.494-3.583,2.159c-2.447,1.298-5.008,2.388-7.682,3.188c-1.334,0.406-2.694,0.744-4.065,1.034
				c-1.38,0.26-2.774,0.46-4.176,0.595c-2.804,0.282-5.647,0.212-8.432-0.11l-1.059-0.123c-1-0.115-1.942-0.476-2.733-0.989
				c-2.567-1.679-4.492-3.582-6.09-5.513c-1.605-1.931-2.87-3.93-3.998-5.92c-1.102-2.012-2.03-4.039-2.813-6.104
				c-0.393-1.032-0.734-2.079-1.059-3.129c-0.32-1.079-0.568-2.08-0.838-3.297c-0.578-2.602,1.063-5.179,3.665-5.757
				c1.656-0.368,3.302,0.163,4.429,1.269l0.497,0.495c0.586,0.584,1.265,1.351,1.897,2.024c0.63,0.701,1.283,1.382,1.919,2.06
				c1.283,1.345,2.551,2.655,3.838,3.837c1.255,1.206,2.556,2.276,3.777,3.162c1.223,0.885,2.402,1.54,3.294,1.856l-3.791-1.111
				c1.665-0.1,3.295-0.364,4.903-0.712c1.603-0.386,3.183-0.887,4.737-1.498c1.543-0.643,3.079-1.346,4.542-2.188
				c0.738-0.403,1.449-0.856,2.14-1.29c0.346-0.218,0.673-0.448,0.99-0.661l0.445-0.307l0.187-0.132l0.069-0.045
				c0.014-0.009,0.019-0.012,0.016-0.007c0,0,0.014-0.008-0.056,0.056c3.939-3.517,9.984-3.175,13.501,0.764
				C376.792,207.625,376.45,213.669,372.511,217.187z"/>
		</g>
		<path style="fill:#B55B52;" d="M324.899,203.898l3.809-3.995c2.256-5.344-5.117-7.056-5.117-7.056l-4.599-3.343
			c-1.089-0.764-2.672-0.515-3.741,0.589l-2.685,2.773c-1.224,1.264-1.336,3.18-0.248,4.247l3.831,3.487
			c0.711,0.698,1.584,1.209,2.541,1.488L324.899,203.898z"/>
		<g>
			<path style="fill:#407BFF;" d="M376.776,195.329c-8.859-0.515-21.833,9.673-21.833,9.673c-1.232,3.387,1.796,15.999,7.213,21.499
				c0,0,6.224,1.484,11.667-5.083C379.741,214.274,386.166,195.874,376.776,195.329z"/>
		</g>
		<path style="fill:#407BFF;" d="M378.544,195.042c10.804-1.127,25.232-0.991,36.428,0.579c6.988,0.98,11.605,7.716,10.23,14.637
			c-5.664,28.526-1.429,60.364-5.098,66.74c0,0-40.406,0.705-63.952-0.916c-6.45-30.961,6.233-49.912,12.611-74.092
			C369.854,197.858,374.293,195.485,378.544,195.042z"/>
		<g>
			<path style="fill:#B65B52;" d="M428.116,206.783l0.905,1.128l0.795,1.029c0.515,0.683,1.005,1.376,1.489,2.068
				c0.976,1.381,1.871,2.809,2.754,4.253c1.73,2.909,3.348,5.923,4.701,9.164c1.378,3.224,2.549,6.645,3.298,10.385
				c0.779,3.71,1.096,7.826,0.434,12.211l-0.123,0.815c-0.104,0.688-0.342,1.342-0.668,1.912c-1.23,2.137-2.593,4.117-4.016,5.967
				c-1.419,1.851-2.95,3.574-4.512,5.212c-1.59,1.622-3.223,3.167-4.94,4.61c-1.744,1.452-3.45,2.774-5.473,4.076
				c-2.254,1.451-5.257,0.8-6.708-1.453c-0.957-1.486-1-3.298-0.272-4.776l0.184-0.37c0.856-1.727,1.898-3.554,2.826-5.314
				c0.95-1.772,1.887-3.523,2.77-5.27c0.923-1.722,1.71-3.477,2.517-5.161c0.791-1.695,1.435-3.383,2.058-4.991l-0.791,2.727
				c-0.004-1.683-0.357-3.717-1.026-5.915c-0.325-1.092-0.748-2.221-1.232-3.358c-0.457-1.144-0.983-2.302-1.566-3.46
				c-1.164-2.31-2.478-4.651-3.916-6.945c-0.706-1.156-1.468-2.286-2.215-3.418l-1.142-1.667l-1.05-1.493l-0.347-0.495
				c-3.034-4.316-1.995-10.274,2.321-13.308C419.311,202.033,424.984,202.896,428.116,206.783z"/>
			<g>
				<path style="fill:#407BFF;" d="M418.112,196.497c8.353,2.997,16.236,17.14,16.236,17.14
					c-0.392,5.152-8.548,16.815-14.361,19.336c0,0-6.223-4.91-8.657-13.084C408.682,210.998,413.813,197.778,418.112,196.497z"/>
			</g>
		</g>
		<path style="fill:#B55B52;" d="M384.279,197.145c0.526-1.139,2.07-2.884,3.675-3.479c0.57-1.399,0.646-2.96,0.124-4.791
			l17.949-5.715c-1.451,5.933-2.586,10.621-0.381,13.503c-3.527,2.154-9.993,6.02-17.043,5.819
			C381.553,202.281,383.13,199.633,384.279,197.145z"/>
		<path style="opacity:0.2;" d="M388.222,189.429l13.47-0.79c-4.213,4.501-10.596,6.193-13.508,4.363
			C388.489,191.921,388.517,190.749,388.222,189.429z"/>
		<g>
			<path style="fill:#407BFF;" d="M388.183,202.465l2.912-2.424l3.915,1.963C395.011,202.004,392.512,204.346,388.183,202.465z"/>
			<path style="opacity:0.3;" d="M388.183,202.465l2.912-2.424l3.915,1.963C395.011,202.004,392.512,204.346,388.183,202.465z"/>
		</g>
		<path style="fill:#F5F5F5;" d="M398.106,164.61c-0.219-5.512-5.534-8.027-10.147-5.13c-4.613,2.897-5.05,11.745-1.606,16.368
			C389.797,180.471,398.106,164.61,398.106,164.61z"/>
		<path style="fill:#B55B52;" d="M409.527,174.076c-2.141,7.724-3.774,12.928-9.351,15.411c-11.082,4.934-16.035-0.3-16.426-8.453
			c-0.353-7.339,3.208-18.737,12.107-20.399C404.624,158.998,411.668,166.352,409.527,174.076z"/>
		<path style="fill:#E0E0E0;" d="M403.389,170.056c-2.389,2.278-3.339,12.311,0.269,12.147c3.608-0.164,7.325-0.945,7.325-0.945
			s4.592-1.733,2.077-8.621C410.545,165.748,403.389,170.056,403.389,170.056z"/>
		<path style="opacity:0.2;" d="M396.954,173.141c0,0,1.763-0.48,2.998,0.411C398.282,173.654,396.954,173.141,396.954,173.141z"/>
		<path style="opacity:0.2;" d="M396.905,173.861c0,0,1.664-0.094,2.539,1.039C397.949,174.645,396.905,173.861,396.905,173.861z"/>
		<path style="opacity:0.2;" d="M390.2,164.97c0,0,4.211-0.045,7.545,0.759C393.525,165.46,390.2,164.97,390.2,164.97z"/>
		<path style="opacity:0.2;" d="M389.041,165.664c0,0,5.764,0.627,8.43,1.87C392.4,166.709,389.041,165.664,389.041,165.664z"/>
		<path style="fill:#B55B52;" d="M411.116,183.123c-1.557,1.711-3.763,2.535-5.669,2.583c-2.867,0.072-3.626-2.667-2.264-5.012
			c1.226-2.111,4.195-4.692,6.801-3.646C412.551,178.077,412.896,181.167,411.116,183.123z"/>
		
			<ellipse transform="matrix(0.1768 -0.9843 0.9843 0.1768 153.9048 529.7924)" style="fill:#263238;" cx="393.655" cy="172.894" rx="1.267" ry="0.829"/>
		<path style="fill:#263238;" d="M387.325,171.906c-0.128,0.688-0.597,1.174-1.046,1.086c-0.449-0.088-0.71-0.717-0.582-1.405
			c0.128-0.688,0.597-1.174,1.046-1.086C387.193,170.589,387.453,171.218,387.325,171.906z"/>
		<path style="fill:#A02724;" d="M389.588,172.894l-1.032,5.792c0,0-1.028,0.047-2.046-0.288c-0.585-0.193-0.689-0.996-0.183-1.348
			C388.093,175.819,389.588,172.894,389.588,172.894z"/>
		<path style="fill:#263238;" d="M398.497,171.774c0.068,0.004,0.138-0.009,0.204-0.041c0.203-0.1,0.285-0.346,0.184-0.551
			c-1.015-2.046-2.897-2.301-2.977-2.311c-0.226-0.028-0.429,0.132-0.455,0.358c-0.026,0.225,0.135,0.43,0.359,0.459l0,0
			c0.062,0.008,1.527,0.223,2.337,1.856C398.218,171.682,398.353,171.766,398.497,171.774z"/>
		<path style="fill:#263238;" d="M384.93,169.518c0.131,0.023,0.27-0.018,0.368-0.122c1.236-1.319,2.698-1.084,2.76-1.073
			c0.223,0.039,0.435-0.11,0.472-0.333c0.038-0.223-0.111-0.436-0.333-0.477c-0.081-0.013-1.951-0.335-3.5,1.317
			c-0.155,0.165-0.145,0.426,0.021,0.582C384.779,169.469,384.853,169.505,384.93,169.518z"/>
		<path style="fill:#FFFFFF;" d="M404.415,192.662c0,0-5.78,7.018-13.319,7.379c4.388,2.079,5.127,7.003,5.127,7.003
			s9.402-2.866,11.179-12.87C406.281,192.568,404.415,192.662,404.415,192.662z"/>
		<g>
			<path style="fill:#407BFF;" d="M388.183,202.465l-3.301-2.956l-4.204,1.247C380.679,200.756,383.855,204.346,388.183,202.465z"/>
			<path style="opacity:0.3;" d="M388.183,202.465l-3.301-2.956l-4.204,1.247C380.679,200.756,383.855,204.346,388.183,202.465z"/>
		</g>
		<path style="fill:#FFFFFF;" d="M387.954,193.666c0,0-2.933,3.395-3.072,5.843c-3.527,0.998-5.223,6.163-5.223,6.163
			s-0.643-7.387,4.888-11.369C385.891,193.418,387.954,193.666,387.954,193.666z"/>
		<path style="fill:#263238;" d="M425.54,416.226h-2.85l-0.772-1.156l-1.496,1.168h-17.199c-0.337-1.709,0.734-3.94,0.734-3.94
			s5.143-0.467,7.122-3.032c0.152-0.198,0.391-0.305,0.635-0.254c1.713,0.359,8.516,1.645,12.261,0.297
			c0.406-0.146,0.834,0.13,0.841,0.561C424.862,412.833,425.54,416.226,425.54,416.226z"/>
		<g>
			<path style="fill:#263238;" d="M388.341,205.073c0.809-1.268,1.232-2.605,0.32-3.2c-0.654-0.427-2.601-1.034-2.956,0.311
				c-0.355,1.344-0.356,2.427,0.2,3.033C386.461,205.823,387.831,205.871,388.341,205.073z"/>
			<path style="fill:#263238;" d="M388.75,202.149c1.698-2.356,6.701-3.203,6.7-1.257c-0.003,3.724-0.122,7.497-1.723,8.381
				c-1.601,0.884-4.119-4.897-5.348-4.971L388.75,202.149z"/>
			<path style="fill:#263238;" d="M386.013,202.016c-1.026-2.489-4.172-3.368-4.691-1.515c-0.992,3.544-1.137,6.49,0.028,7.509
				c1.164,1.019,3.641-3.858,4.646-3.824L386.013,202.016z"/>
		</g>
		<path style="fill:#B55B52;" d="M330.128,198.671c1.258-4.567-1.927-7.399-3.702-10.361c-0.301-0.503-1.84-0.229-1.916,0.831
			c-0.134,1.856,0.238,2.737,0.926,3.693c-0.926,1.157-2.305,5.218,0.939,7.86C328.542,200.569,330.128,198.671,330.128,198.671z"/>
		<g>
			<path style="fill:#FFFFFF;" d="M416.72,195.758c-0.613-0.47-2.004-0.781-3.032-0.47c-3.116,3.595-16.673,29.717-11.097,78.151
				h3.171C400.186,225.005,413.605,199.352,416.72,195.758z"/>
			<path style="fill:#FFFFFF;" d="M406.088,277.403l-0.281-3.574c-0.03-0.377-0.383-0.666-0.786-0.643l-1.532,0.089
				c-0.402,0.023-0.708,0.35-0.678,0.727l0.281,3.574c0.03,0.377,0.383,0.666,0.786,0.642l1.532-0.089
				C405.813,278.107,406.117,277.78,406.088,277.403z"/>
			<path style="fill:#263238;" d="M406.159,275.112h-3.423c-0.361,0-0.704-0.295-0.763-0.656l-0.225-1.374
				c-0.059-0.361,0.188-0.656,0.549-0.656h3.423c0.361,0,0.704,0.295,0.763,0.656l0.225,1.374
				C406.767,274.817,406.52,275.112,406.159,275.112z"/>
		</g>
		<g>
			<path style="fill:#FFFFFF;" d="M379.373,194.959c-0.592-0.47-2.451-0.195-3.38,0.329c-3.275,3.595-17.992,29.717-14.565,78.151
				h3.171C361.172,225.005,376.097,198.554,379.373,194.959z"/>
			<path style="fill:#FFFFFF;" d="M364.748,277.403l-0.123-3.574c-0.013-0.377-0.354-0.666-0.757-0.643l-1.536,0.089
				c-0.404,0.023-0.723,0.35-0.71,0.727l0.123,3.574c0.013,0.377,0.354,0.666,0.757,0.642l1.536-0.089
				C364.441,278.107,364.761,277.78,364.748,277.403z"/>
			<path style="fill:#263238;" d="M364.921,275.112h-3.423c-0.361,0-0.691-0.295-0.734-0.656l-0.164-1.374
				c-0.043-0.361,0.217-0.656,0.578-0.656h3.423c0.361,0,0.691,0.295,0.734,0.656l0.164,1.374
				C365.542,274.817,365.282,275.112,364.921,275.112z"/>
		</g>
		<path style="fill:#F5F5F5;" d="M396.82,154.309c-3.882-3.086-10.309,5.166-1.819,9.761c10.64,5.758,9.36,15.055,23.116,12.335
			c-5.889-4.127-2.143-7.271-4.633-13.24C410.696,156.482,403.111,159.311,396.82,154.309z"/>
		<path style="fill:#F5F5F5;" d="M390.899,159.259c1.256,4.616,2.788,5.697,4.214,6.908c-1.5-2.208-2.107-5.125-2.107-5.125
			L390.899,159.259z"/>
		<path style="fill:#263238;" d="M385.222,180.822c0,0,2.99-0.236,11.11,0.971c-1.314,2.299-3.385,4.027-7.538,3.37
			C384.641,184.506,385.222,180.822,385.222,180.822z"/>
		<path style="fill:#A02724;" d="M391.008,183.531c-2.004-0.318-3.522-0.075-4.705,0.507c0.527,0.517,1.328,0.937,2.489,1.121
			c2.004,0.317,3.512,0.085,4.695-0.508C392.959,184.134,392.168,183.714,391.008,183.531z"/>
		<path style="fill:#FFFFFF;" d="M385.601,180.807c0.153,0.555,0.304,1.11,1.092,1.4c1.675,0.367,6.076,0.529,7.276,0.459
			c0.763-0.011,1.436-0.171,2.012-0.925C389.726,180.827,386.611,180.786,385.601,180.807z"/>
		<path style="fill:#F5F5F5;" d="M385.052,186.767c0.077,2.17,2.262,3.959,1.687,5.362c2.67,0.198,5.562-0.426,7.739-1.739
			c0.881-0.531,0.561-1.89-0.457-2.035c-2.025-0.288-3.823-0.959-4.785-1.741c-0.375-0.305-0.912-0.351-1.285-0.042
			C386.228,187.997,385.052,186.767,385.052,186.767z"/>
		<polygon style="fill:#263238;" points="422.261,276.963 371.505,241.591 372.062,240.78 423.311,275.434 		"/>
		<path style="fill:#B55B52;" d="M417.876,262.42l4.927,2.49c3.914,4.281-2.46,8.361-2.46,8.361l-2.272,3.2
			c-0.77,1.085-2.346,1.38-3.722,0.697l-3.458-1.714c-1.576-0.781-2.323-2.549-1.655-3.919l1.5-3.079
			c0.437-0.896,1.088-1.67,1.896-2.253L417.876,262.42z"/>
	</g>
</g>
</svg>
